<svg xmlns="http://www.w3.org/2000/svg" width="80" height="127" viewBox="0" version="1.1"><style>.style0{fill:	none;fill-rule:	evenodd;}.style1{fill:	#F4F0DB;}.style2{fill:	#102F65;}</style><title>abbekeultjes.nl</title><description>Logo abbekeultjes.nl. Created with Sketch (http://www.bohemiancoding.com/sketch)</description><g class="style0"><path d="M39.4 16.7L56.6 21.8 72.1 38.6 73.7 60.6 75.3 67 71.7 89.4 54.7 113.7 26.3 113.6 10.6 93.2 5.5 68.3 7.3 60.8 6.4 32.8 20.7 19.6 39.4 16.7 39.4 16.7Z" class="style1"/><path d="M52.3 5.9C44.4 2.3 36.3 3.3 28.7 0L27.6 0.2 26.6 1.7C23.2 3 23.8 3 21.9 5.5 20.1 5.7 17 4.1 18.7 8L18.1 8.6C17.9 8.6 17.9 10.3 17.7 10.7L16.4 9.9 16.2 11.4C15.5 11.1 14.7 11.6 14.3 12.2L13 11.6C13.2 12.3 13.1 13.4 12.6 13.9 13.6 15.3 10.7 15.9 10.5 17.3L11.6 17.7C11.6 18.6 7.9 20.8 7.1 21.3 7.4 21.6 6.8 22.1 6.5 22.1L5.2 24.9C5.5 25.3 5.6 25.9 5.7 26.3L6.1 26.8 4.6 28C4.6 30 1.4 31.6 1.4 34.8L1.9 35.2C1.9 39.7-1 45.2 0.4 50 2.7 51.8 1.7 55.7 4 57.3 4.6 59.2 5.5 60.5 5.4 62.6 5.7 63 6 63.4 6.3 63.7 6 63.4 5.7 63.1 5.4 62.8L4.6 62.8C2.7 62.8 2.5 63.6 2.5 65.1 2.5 65.8 2.5 69.8 3.1 72.1 3.3 72.9 4 73.8 4 74.4 4 74.2 4.2 74 4.2 74 5 76.3 5.7 78.6 6.7 80.7L6.9 80.3 6.9 80.5C6.5 81.3 6.8 86.9 7.8 87.5 7.9 89.3 7.8 94.3 9.2 95.5 9.1 96.5 9.8 98 10.5 98.6 10.5 100.5 12.6 102.4 13 104.5L13.5 104.1 13.7 105.8C14.6 106.2 19.7 113.7 20.6 115.1 22.6 115.4 24.9 120.7 28.7 121.2 29.5 122.8 31 123.4 32.7 123.7L33.1 124.3 36.1 125.6 36.7 125.2 37.5 125.8C40.4 126 42.4 127.7 45.3 125.8L46.2 126.2C47.2 125.6 48.8 125.4 50 125.6L51.9 124.3C56.6 121.9 58.2 118.6 62.2 116.1 62.5 115 63.4 113.9 64.1 113 63.9 111.5 70.9 100.7 70.9 97.4L71.5 97.6 71.3 98.4C71.7 97.9 71.9 97 71.9 96.3L72.6 95.7 72.2 94.8C74 93.1 72.7 88.2 73.8 86.6 73.8 85.3 74.5 81.2 75 76.9 75.1 77.2 75.2 77.4 75.3 77.8 75.3 77.1 75.7 76.3 75.7 75.7 75.9 74.6 75.5 73.3 75.7 72.7 76.2 70.2 78.1 66.4 78.1 63.6 78.1 62.4 77.6 60.7 75.1 60.7 74.9 60.7 74.6 60.6 74.3 60.5 74.4 60 74.7 59.5 75.1 59 75.1 57.6 76.2 57.8 77 56.7 77.5 56.1 79.2 48.6 80 46.8L79.3 45.3 80 44C79.6 40.5 79.6 36.3 78.5 33.1L79.3 31.8C79 31.7 78.8 30.8 79.3 30.8L76.6 25.1 77 24.4C75.9 23.5 73.2 22.4 73 20.9 68 19.8 69.9 13.9 61.8 12.9L60.8 13.3 60.3 13.1C60.5 11.7 59.4 10.1 58.4 9.1L57.2 10.5 55.3 7.4 55.7 7 53.4 5.7 52.9 4.4 51.7 3.4 51.5 3.8 52.5 5.1 52.3 5.9 52.3 5.9ZM7.1 64.7C7.2 64.8 7.3 64.8 7.3 64.9 7.6 62.6 9.8 50.5 8.8 49.1L9.2 48.7 8.2 46.6 7.8 47 7.3 46.2 8.8 43.2 8.4 41.9C9 41 9.7 40 10.1 39L9.7 38.6C11.2 34.2 13.5 30.6 16.8 27.4L17.9 27.4 17.7 26.6C20.8 26 25.6 24.5 28 22.8L29.1 23.2 31.6 22.3C31.1 21.9 31.4 21.3 32 21.1L33.7 22.3 34.1 21.9 34.1 20.7 35 20.2 36.3 21.1 36.9 20.7 38.4 21.5 39.8 20.2 40.9 21.3 41.5 20.7 43.2 21.3 43.9 20.9 46.8 21.7 49.8 20.5 50.2 20.9 48.9 21.9C56.4 25.9 57.5 26.8 63.5 32.3 66.9 32.7 68.4 36 69.6 38.8L69.2 39.6 69.6 40.3C68.7 43.4 72.4 59.3 74.1 65.6L74 65.6C74.8 69.8 72.7 78 72.8 78.4 71.5 79.2 70.6 82.7 70 84.1 70.4 84.8 65.9 91.3 65.6 93.2 66.1 93.2 66 94.1 65.6 94.2L64.8 94C65.2 95.2 64.3 97 64.3 98.4 63.9 98.5 63.5 99 63.5 99.5 62.9 99.7 60.7 100.6 60.5 101.4L59.9 100.8C59.1 102.7 59.1 104.2 56.9 105L56.7 106.2 56.3 106.7 56.9 108.1C55.9 108.7 53.6 110 53.6 111.3L51.5 111.9 47.9 110.7 45.8 111.1 43 108.8 42 109.2C41.7 108.2 42.6 107.5 43.4 107.3 44.2 106.3 44.3 103.9 46.2 104.5L48.3 101.6C47 101.1 44.2 101.1 43 102L41.3 101.2C39.6 101.5 37.2 100.9 35.6 100.3L34.6 101C35.3 102.1 36.4 103 37.1 104.1L38.4 104.8C38.9 107.1 39.9 107.4 41.3 109.2 41.2 109.5 40.6 109.7 40.3 109.6 35.9 102.6 38.4 114 30.3 110.7L27 111.9 26.5 111.7 26.5 110.2 24.6 110 24.1 109 24.2 108.7 24 108.1C23.7 107.4 23.1 106.8 23 106L21.9 106C21.8 105.3 21.8 104.1 22.3 103.5L21.9 102.9 23 102.2C22.8 99.2 24.9 97 26.5 94.6L26.5 92.5C30.6 89.6 35.7 90.8 40.1 91.1 45.4 91.3 49.5 92 53.3 94 51.5 93.8 49.7 93.7 48.3 93.2 46.8 92.7 44.4 91.9 43.8 91.9 43.4 91.9 39.5 92.2 39.1 92.2 38.4 92.2 34.6 91.5 34 91.5 31.9 91.5 29.4 92.6 27.1 92.6 27.1 93.3 29 94.7 29.7 94.7 29.7 94.7 33.3 97.8 36.7 98 37.5 98.2 42.4 98.5 44.5 98.5 45.1 98.5 52.1 96.4 53.6 94.8 54 94.4 53.5 94.3 53.7 94.3 55.9 95.5 58 97.3 60.1 99.9L60.7 99.7 60.1 97.8 61 95.3C59.9 90.3 57.7 91.6 56.1 87.9L52.7 86.2 52.9 85.6C52 85.3 50 84.5 49.8 83.5L49.3 83C48.1 83.9 46.7 82.2 45.3 82.4 42.3 79.5 41.7 83.8 39.8 85.2L37.9 82.8C36.9 82.8 35.8 82.3 35 81.8 33.8 82.2 32.5 82.6 31.2 82.6L29.9 84.1 29.1 83.7 26.8 86.4 23.8 85.8C22.7 87.3 22.1 89.1 20.8 90.4L20.6 91.7 21.1 92.7 18.9 97 19.4 97.4C18.9 98 18.3 99.1 18.5 99.9 17.2 99.2 16.6 98.5 15.4 97.6 15.3 94.7 14.9 94.1 12.8 92.1L13.3 88.3 11.1 87.3 10.7 84.7C11.1 84.7 11.6 84.1 11.4 83.7L10.3 83.3 9.9 81.4 10.3 80.5 10.1 79C8 78.9 8.8 76.9 7.6 75.7L7.4 67.3C7.5 66.5 7.6 65.8 7.6 65.6 7.6 65.3 7.4 65 7.1 64.7L7.1 64.7ZM50 60.3C50.8 59.2 51.9 58.4 52.3 57.7 51 58 49.6 59.2 48.9 60.3L48.9 60.9C49.8 61.1 50.8 61.1 51.7 61.1 51 61.1 50.4 60.7 50 60.3L50 60.3ZM19.4 59.9C19.4 59.2 20.9 58.6 21.5 58 20 58.2 17.5 59.4 16.4 60.5 17.5 60.5 18.5 60.3 19.4 60.5 20 60.5 20.6 61.1 21.1 61.1 20.4 60.7 19.4 60.3 19.4 59.9L19.4 59.9ZM63.9 59.6C62.7 59.4 61.4 59 59.9 58.4 60.3 58.8 61 59.2 61 59.6 61 60.3 60.5 60.5 60.3 60.9L62.2 60.9C62.9 60.9 63.7 60.3 64.3 60.1 64.1 59.9 63.9 59.9 63.9 59.6L63.9 59.6ZM31.6 60.1C31 59.9 30.1 59.4 29.5 59 29.9 59.4 30.4 59.4 30.4 60.1 30.4 60.5 29.5 61.3 29.1 61.3L29.9 61.3C30.6 61.3 31 61.1 31.6 60.7L31.6 60.1 31.6 60.1ZM65 58.2C61.8 55.6 60.1 55 56.5 55 53.8 55 51.5 55.6 48.7 58.2 50.8 56.5 54.2 55.4 56.5 55.4 59.5 55.4 61.6 56.9 65 58.2L65 58.2ZM32.5 59C29.5 56.9 27 55.6 24 55.6 22.3 55.6 15.4 57.3 14.5 59.9 19 57.7 20.6 56.1 24.4 56.1 27 56.1 29.9 58.2 32.5 59L32.5 59ZM58.9 59C58.9 57.1 58 56.9 55.9 56.9 54.6 56.9 52.9 56.9 52.9 59 52.9 60.5 53.6 61.5 55.7 61.5 57 61.5 58.9 60.9 58.9 59L58.9 59ZM55.9 57.5L55.9 58.4 54.4 58.2C54.4 58 54.6 57.7 54.8 57.5L55.9 57.5 55.9 57.5ZM28 59.2C28 57.5 26.1 57.1 24.9 57.1 22.8 57.1 22.1 57.5 22.1 59.2 22.1 61.1 22.8 61.5 24.9 61.5 26.1 61.5 28 61.1 28 59.2L28 59.2ZM25.3 58.6L23.4 58.4C23.4 58.2 23.8 58 24.4 58 24.9 58 25.1 58 25.3 58.6L25.3 58.6ZM65.4 51.6C63.1 50.8 61.2 49.3 58.9 49.3 55.5 49.3 51.7 50.8 48.3 51.8 48.5 51.8 48.7 51.8 48.9 52.1 48.1 52.3 47.2 52.7 46.4 53.3L46.4 54.4C48.7 54 50.6 53.7 52.3 53.5L57.2 53.5C59.3 53.5 64.1 52.7 65.4 52.3L65.4 51.6 65.4 51.6ZM29.7 50.2C27.4 49.3 23 49.5 22.5 49.5 21.9 49.5 20.4 49.5 19.4 49.7 18.7 49.7 11.6 52.1 11.6 54.6 11.6 55 11.6 55 11.8 55.2L13.5 55.2C14.3 55.2 20 53.3 22.5 53.3 23.2 53.3 31.8 54.8 32.3 54.8 32.9 54.8 33.9 54.8 34.2 54 32.7 52.9 31.2 50.8 29.7 50.2L29.7 50.2ZM37.7 78L36.3 78C35.4 78.4 34.6 78.8 33.7 79.7L33.7 80.5 35.8 80.5C36.5 80.5 38 79 38 78.6 38 78 37.7 78.2 37.7 78L37.7 78ZM46.6 79.7C46.6 78.8 44.9 78.2 44.3 78.2 43.9 78.2 43.2 78.4 42.8 78.4L42.8 79.2C43.7 79.5 44.9 80.5 45.6 80.5 46 80.5 46.6 80.1 46.6 79.7L46.6 79.7Z" class="style2"/></g></svg>